<svg width="10" height="6" viewBox="0 0 10 6" fill="none" xmlns="http://www.w3.org/2000/svg">
<path d="M9.16668 0.641619C9.01054 0.48641 8.79933 0.399292 8.57918 0.399292C8.35902 0.399292 8.14781 0.48641 7.99168 0.641619L5.00001 3.59162L2.05001 0.641619C1.89387 0.48641 1.68266 0.399292 1.46251 0.399292C1.24235 0.399292 1.03114 0.48641 0.875008 0.641619C0.796901 0.719088 0.734906 0.811256 0.692598 0.912805C0.650291 1.01435 0.62851 1.12328 0.62851 1.23329C0.62851 1.3433 0.650291 1.45222 0.692598 1.55377C0.734906 1.65532 0.796901 1.74748 0.875008 1.82495L4.40834 5.35829C4.48581 5.43639 4.57798 5.49839 4.67953 5.54069C4.78108 5.583 4.89 5.60478 5.00001 5.60478C5.11002 5.60478 5.21894 5.583 5.32049 5.54069C5.42204 5.49839 5.51421 5.43639 5.59168 5.35829L9.16668 1.82495C9.24478 1.74748 9.30678 1.65532 9.34909 1.55377C9.39139 1.45222 9.41318 1.3433 9.41318 1.23329C9.41318 1.12328 9.39139 1.01435 9.34909 0.912805C9.30678 0.811256 9.24478 0.719088 9.16668 0.641619Z" fill="#3A3A3A"/>
</svg>
